<svg xmlns="http://www.w3.org/2000/svg" viewBox="0 0 960 720" role="img" aria-label="Student assessment dashboard with focus, reading, and learning support">
  <defs>
    <linearGradient id="wall" x1="0" y1="0" x2="1" y2="1">
      <stop offset="0" stop-color="#f7fbff"/>
      <stop offset="0.55" stop-color="#eef9f5"/>
      <stop offset="1" stop-color="#fff7e9"/>
    </linearGradient>
    <filter id="shadow" x="-20%" y="-20%" width="140%" height="140%">
      <feDropShadow dx="0" dy="20" stdDeviation="18" flood-color="#172033" flood-opacity="0.16"/>
    </filter>
  </defs>
  <rect width="960" height="720" rx="34" fill="url(#wall)"/>
  <circle cx="794" cy="112" r="70" fill="#ffd166" opacity="0.82"/>
  <circle cx="135" cy="594" r="86" fill="#91d7ff" opacity="0.45"/>
  <circle cx="852" cy="574" r="116" fill="#ffb3a7" opacity="0.34"/>

  <g filter="url(#shadow)">
    <rect x="92" y="88" width="776" height="506" rx="28" fill="#ffffff"/>
  </g>

  <rect x="128" y="126" width="294" height="354" rx="24" fill="#eef4ff"/>
  <circle cx="275" cy="226" r="76" fill="#ffd8b5"/>
  <path d="M193 220c9-69 50-111 107-105 59 7 90 55 78 120-38-32-104-31-185-15z" fill="#172033"/>
  <path d="M217 283c30 45 92 45 118 0 49 24 76 72 76 132v65H141v-65c0-60 28-108 76-132z" fill="#2457c5"/>
  <rect x="188" y="402" width="174" height="42" rx="21" fill="#15906b"/>
  <path d="M176 232c-28 19-29 78 0 101M374 232c28 20 28 78 0 101" fill="none" stroke="#2457c5" stroke-width="18" stroke-linecap="round"/>
  <circle cx="181" cy="279" r="14" fill="#ffffff"/>
  <circle cx="369" cy="279" r="14" fill="#ffffff"/>

  <rect x="462" y="126" width="326" height="92" rx="18" fill="#f7fbff" stroke="#d9e1ea" stroke-width="4"/>
  <rect x="492" y="154" width="138" height="14" rx="7" fill="#2457c5"/>
  <rect x="492" y="183" width="236" height="12" rx="6" fill="#9eb2cc"/>
  <circle cx="744" cy="172" r="26" fill="#54d6aa"/>
  <path d="M730 172l10 10 21-25" fill="none" stroke="#ffffff" stroke-width="7" stroke-linecap="round" stroke-linejoin="round"/>

  <rect x="462" y="250" width="148" height="116" rx="18" fill="#fff7e9" stroke="#f1d6a6" stroke-width="4"/>
  <text x="502" y="323" font-family="Segoe UI, Arial, sans-serif" font-size="50" font-weight="800" fill="#172033">b d</text>
  <rect x="636" y="250" width="152" height="116" rx="18" fill="#eef9f5" stroke="#c9eadf" stroke-width="4"/>
  <path d="M664 323c28-42 59-18 82-50 15 44 38 45 58 20" fill="none" stroke="#15906b" stroke-width="11" stroke-linecap="round"/>

  <rect x="462" y="398" width="326" height="108" rx="18" fill="#fbfcff" stroke="#d9e1ea" stroke-width="4"/>
  <path d="M500 470l55-42 58 20 55-58 72 56" fill="none" stroke="#2457c5" stroke-width="12" stroke-linecap="round" stroke-linejoin="round"/>
  <circle cx="500" cy="470" r="10" fill="#2457c5"/>
  <circle cx="555" cy="428" r="10" fill="#15906b"/>
  <circle cx="668" cy="390" r="10" fill="#c97914"/>
  <rect x="492" y="426" width="36" height="64" rx="8" fill="#dbe7ff" opacity="0.72"/>
  <rect x="548" y="406" width="36" height="84" rx="8" fill="#cff1e4" opacity="0.72"/>
  <rect x="604" y="438" width="36" height="52" rx="8" fill="#ffe8bd" opacity="0.78"/>
  <rect x="660" y="382" width="36" height="108" rx="8" fill="#ffd9d5" opacity="0.72"/>
  <rect x="716" y="424" width="36" height="66" rx="8" fill="#dbe7ff" opacity="0.72"/>

  <rect x="166" y="520" width="582" height="40" rx="20" fill="#172033"/>
  <rect x="190" y="534" width="150" height="12" rx="6" fill="#54d6aa"/>
  <rect x="364" y="534" width="122" height="12" rx="6" fill="#ffd166"/>
  <rect x="510" y="534" width="210" height="12" rx="6" fill="#91a7ff"/>
</svg>
