<svg xmlns="http://www.w3.org/2000/svg" viewBox="0 0 960 720" role="img" aria-label="Calm student studying at a desk with a laptop in a warm modern study space">
  <defs>
    <linearGradient id="room" x1="0" y1="0" x2="1" y2="1">
      <stop offset="0" stop-color="#fff8ed"/>
      <stop offset="0.48" stop-color="#f6fbff"/>
      <stop offset="1" stop-color="#eef9f5"/>
    </linearGradient>
    <linearGradient id="desk" x1="0" y1="0" x2="1" y2="0">
      <stop offset="0" stop-color="#2457c5"/>
      <stop offset="0.55" stop-color="#15906b"/>
      <stop offset="1" stop-color="#c97914"/>
    </linearGradient>
    <linearGradient id="screenGlow" x1="0" y1="0" x2="1" y2="1">
      <stop offset="0" stop-color="#dff3ff"/>
      <stop offset="0.56" stop-color="#eef9f5"/>
      <stop offset="1" stop-color="#fff4dd"/>
    </linearGradient>
    <filter id="softShadow" x="-20%" y="-20%" width="140%" height="140%">
      <feDropShadow dx="0" dy="20" stdDeviation="18" flood-color="#172033" flood-opacity="0.16"/>
    </filter>
    <filter id="cardShadow" x="-20%" y="-20%" width="140%" height="140%">
      <feDropShadow dx="0" dy="10" stdDeviation="10" flood-color="#172033" flood-opacity="0.1"/>
    </filter>
    <filter id="warmGlow" x="-40%" y="-40%" width="180%" height="180%">
      <feGaussianBlur stdDeviation="18"/>
    </filter>
  </defs>

  <rect width="960" height="720" rx="36" fill="url(#room)"/>
  <circle cx="805" cy="118" r="86" fill="#ffd166" opacity="0.55" filter="url(#warmGlow)"/>
  <circle cx="152" cy="590" r="118" fill="#91d7ff" opacity="0.28"/>
  <path d="M82 606h796" stroke="#d7e1ea" stroke-width="5" stroke-linecap="round"/>

  <g filter="url(#softShadow)">
    <rect x="72" y="86" width="816" height="500" rx="34" fill="#ffffff"/>
  </g>

  <rect x="116" y="124" width="728" height="412" rx="28" fill="#fbfdff"/>
  <rect x="146" y="156" width="232" height="58" rx="18" fill="#fff7e9" stroke="#f1d6a6" stroke-width="4"/>
  <path d="M176 186h92M176 202h150" stroke="#c97914" stroke-width="9" stroke-linecap="round"/>

  <g filter="url(#cardShadow)">
    <rect x="560" y="142" width="228" height="156" rx="24" fill="#ffffff"/>
  </g>
  <rect x="592" y="174" width="164" height="16" rx="8" fill="#2457c5"/>
  <rect x="592" y="210" width="118" height="12" rx="6" fill="#9eb2cc"/>
  <rect x="592" y="238" width="142" height="12" rx="6" fill="#b9c9da"/>
  <circle cx="748" cy="244" r="22" fill="#54d6aa"/>
  <path d="M738 245l8 8 17-22" fill="none" stroke="#ffffff" stroke-width="6" stroke-linecap="round" stroke-linejoin="round"/>

  <g transform="translate(0 12)">
    <rect x="206" y="456" width="548" height="62" rx="31" fill="url(#desk)"/>
    <rect x="245" y="474" width="122" height="13" rx="7" fill="#ffffff" opacity="0.68"/>
    <rect x="610" y="474" width="96" height="13" rx="7" fill="#ffffff" opacity="0.58"/>
  </g>

  <g transform="translate(288 206)">
    <path d="M22 218c18-76 72-119 145-119s126 43 145 119v63H22z" fill="#2457c5"/>
    <path d="M70 162c35 31 155 31 193 0l-7 104H78z" fill="#183f91" opacity="0.55"/>
    <circle cx="168" cy="48" r="68" fill="#ffd8b5"/>
    <path d="M96 41c7-61 49-94 104-84 51 10 80 54 67 107-42-27-94-31-171-23z" fill="#172033"/>
    <circle cx="141" cy="51" r="6" fill="#172033"/>
    <circle cx="193" cy="51" r="6" fill="#172033"/>
    <path d="M145 78c15 15 39 15 54 0" fill="none" stroke="#9f5c32" stroke-width="7" stroke-linecap="round"/>
    <path d="M86 50c-20 17-22 56 0 75M250 50c20 17 22 56 0 75" fill="none" stroke="#2457c5" stroke-width="16" stroke-linecap="round"/>
    <rect x="90" y="107" width="156" height="34" rx="17" fill="#15906b"/>
  </g>

  <g filter="url(#cardShadow)">
    <rect x="272" y="412" width="412" height="116" rx="22" fill="#172033"/>
  </g>
  <rect x="298" y="434" width="360" height="64" rx="12" fill="url(#screenGlow)"/>
  <rect x="326" y="455" width="112" height="12" rx="6" fill="#2457c5"/>
  <rect x="326" y="481" width="178" height="10" rx="5" fill="#91a7ff"/>
  <rect x="532" y="452" width="82" height="34" rx="10" fill="#eef9f5" stroke="#bfe7d9" stroke-width="4"/>
  <path d="M552 470c16-22 29-4 45-20" fill="none" stroke="#15906b" stroke-width="6" stroke-linecap="round"/>
  <path d="M342 528h272l28 30H314z" fill="#2a3347"/>
  <path d="M386 546h188" stroke="#607089" stroke-width="8" stroke-linecap="round"/>

  <g filter="url(#cardShadow)">
    <rect x="130" y="332" width="130" height="94" rx="20" fill="#ffffff"/>
    <rect x="704" y="338" width="118" height="88" rx="20" fill="#ffffff"/>
  </g>
  <path d="M162 370h66M162 392h42" stroke="#15906b" stroke-width="8" stroke-linecap="round"/>
  <path d="M735 372h52M735 394h34" stroke="#c97914" stroke-width="8" stroke-linecap="round"/>

  <g opacity="0.95">
    <rect x="160" y="250" width="96" height="58" rx="16" fill="#eef4ff" stroke="#d9e1ea" stroke-width="4"/>
    <text x="188" y="289" font-family="Segoe UI, Arial, sans-serif" font-size="34" font-weight="800" fill="#2457c5">Aa</text>
    <rect x="704" y="256" width="96" height="58" rx="16" fill="#fff7e9" stroke="#f1d6a6" stroke-width="4"/>
    <path d="M734 286h38M753 267v38" stroke="#c97914" stroke-width="7" stroke-linecap="round"/>
  </g>
</svg>
