<svg xmlns="http://www.w3.org/2000/svg" viewBox="0 0 960 720" role="img" aria-label="Brainstorming learning workspace with ideas, focus signals, and cognitive insights">
  <defs>
    <linearGradient id="room" x1="0" y1="0" x2="1" y2="1">
      <stop offset="0" stop-color="#f6fbff"/>
      <stop offset="0.48" stop-color="#eef8ff"/>
      <stop offset="1" stop-color="#f7fff8"/>
    </linearGradient>
    <linearGradient id="desk" x1="0" y1="0" x2="1" y2="0">
      <stop offset="0" stop-color="#1f4aa8"/>
      <stop offset="1" stop-color="#15906b"/>
    </linearGradient>
    <linearGradient id="brain" x1="0" y1="0" x2="1" y2="1">
      <stop offset="0" stop-color="#ffcc66"/>
      <stop offset="0.52" stop-color="#ff8fa3"/>
      <stop offset="1" stop-color="#7b8cff"/>
    </linearGradient>
    <filter id="softShadow" x="-20%" y="-20%" width="140%" height="140%">
      <feDropShadow dx="0" dy="18" stdDeviation="16" flood-color="#172033" flood-opacity="0.15"/>
    </filter>
    <filter id="cardShadow" x="-20%" y="-20%" width="140%" height="140%">
      <feDropShadow dx="0" dy="10" stdDeviation="10" flood-color="#172033" flood-opacity="0.11"/>
    </filter>
  </defs>

  <rect width="960" height="720" rx="36" fill="url(#room)"/>
  <path d="M86 568c86-48 187-54 302-18 98 31 202 37 314-6 67-26 127-33 180-14v112H86z" fill="#dff3ec"/>
  <path d="M82 612h796" stroke="#cfe0ec" stroke-width="5" stroke-linecap="round"/>

  <g filter="url(#softShadow)">
    <rect x="76" y="94" width="808" height="462" rx="34" fill="#ffffff"/>
  </g>

  <rect x="116" y="132" width="268" height="286" rx="26" fill="#eef4ff" stroke="#d9e1ea" stroke-width="4"/>
  <rect x="146" y="165" width="208" height="28" rx="14" fill="#2457c5"/>
  <rect x="146" y="210" width="150" height="14" rx="7" fill="#91a7c2"/>
  <rect x="146" y="238" width="188" height="14" rx="7" fill="#b6c5d8"/>

  <g transform="translate(151 277)">
    <rect width="84" height="74" rx="16" fill="#fff7e9" stroke="#f1d6a6" stroke-width="4"/>
    <path d="M30 52h24M42 21v34M27 29c8-14 22-16 30 0" fill="none" stroke="#c97914" stroke-width="7" stroke-linecap="round"/>
  </g>
  <g transform="translate(259 277)">
    <rect width="84" height="74" rx="16" fill="#eef9f5" stroke="#bfe7d9" stroke-width="4"/>
    <path d="M20 48c22-36 39-6 60-32" fill="none" stroke="#15906b" stroke-width="8" stroke-linecap="round"/>
    <circle cx="24" cy="48" r="6" fill="#15906b"/>
    <circle cx="79" cy="16" r="6" fill="#15906b"/>
  </g>

  <g filter="url(#cardShadow)">
    <rect x="424" y="128" width="356" height="296" rx="30" fill="#fbfdff" stroke="#d9e1ea" stroke-width="4"/>
  </g>

  <path d="M602 175c64 0 118 48 118 109 0 59-52 107-116 107-66 0-121-48-121-108 0-61 54-108 119-108z" fill="url(#brain)" opacity="0.95"/>
  <path d="M550 220c-18 0-34 16-34 35 0 20 16 35 34 35M604 196c-23 8-37 28-34 51M640 224c28 0 48 22 48 49M574 318c23 16 58 12 79-9M617 258c-16 12-17 35-2 51" fill="none" stroke="#ffffff" stroke-width="12" stroke-linecap="round"/>

  <g stroke="#2457c5" stroke-width="5" stroke-linecap="round" opacity="0.85">
    <path d="M484 195l-52-44"/>
    <path d="M726 215l58-38"/>
    <path d="M485 346l-60 43"/>
    <path d="M724 342l62 45"/>
  </g>

  <g filter="url(#cardShadow)">
    <rect x="340" y="96" width="126" height="74" rx="18" fill="#ffffff"/>
    <rect x="742" y="112" width="118" height="72" rx="18" fill="#ffffff"/>
    <rect x="328" y="376" width="126" height="76" rx="18" fill="#ffffff"/>
    <rect x="746" y="380" width="126" height="76" rx="18" fill="#ffffff"/>
  </g>
  <path d="M375 134h56M375 151h38" stroke="#2457c5" stroke-width="8" stroke-linecap="round"/>
  <path d="M776 148h50M776 165h32" stroke="#15906b" stroke-width="8" stroke-linecap="round"/>
  <path d="M362 414h56M362 431h36" stroke="#c97914" stroke-width="8" stroke-linecap="round"/>
  <path d="M780 417h58M780 434h42" stroke="#c83f49" stroke-width="8" stroke-linecap="round"/>

  <g transform="translate(184 422)">
    <path d="M30 95c11-40 43-65 86-65s75 25 86 65v56H30z" fill="#2457c5"/>
    <circle cx="116" cy="0" r="54" fill="#ffd8b5"/>
    <path d="M61-9c7-49 42-74 84-63 36 9 55 44 45 84-33-21-75-24-129-21z" fill="#172033"/>
    <path d="M72 16c10 28 75 28 88 0" fill="none" stroke="#9f5c32" stroke-width="6" stroke-linecap="round"/>
    <circle cx="96" cy="-2" r="5" fill="#172033"/>
    <circle cx="138" cy="-2" r="5" fill="#172033"/>
  </g>

  <g transform="translate(510 472)">
    <rect x="-32" y="-44" width="284" height="118" rx="24" fill="#172033"/>
    <rect x="-8" y="-20" width="112" height="14" rx="7" fill="#54d6aa"/>
    <rect x="-8" y="10" width="174" height="12" rx="6" fill="#91a7ff"/>
    <rect x="-8" y="38" width="136" height="12" rx="6" fill="#ffd166"/>
    <circle cx="212" cy="17" r="28" fill="#ffffff" opacity="0.92"/>
    <path d="M200 19l9 9 19-25" fill="none" stroke="#15906b" stroke-width="7" stroke-linecap="round" stroke-linejoin="round"/>
  </g>

  <rect x="128" y="570" width="704" height="48" rx="24" fill="url(#desk)"/>
  <rect x="194" y="587" width="128" height="13" rx="7" fill="#ffffff" opacity="0.74"/>
  <rect x="352" y="587" width="94" height="13" rx="7" fill="#ffffff" opacity="0.54"/>
  <rect x="634" y="587" width="134" height="13" rx="7" fill="#ffffff" opacity="0.7"/>
</svg>
